<svg xmlns="http://www.w3.org/2000/svg" width="1024" height="1024"><path d="M305 100h414l20 1 15 1 17 2 12 2 9 2 13 4 6 2 7 3 4 2 3 1 1 1 3 1 3 2 4 2 3 2 4 2 4 3 3 2 4 3 4 3 2 2 3 2 17 17 2 3 2 2 2 3 3 4 3 4 3 5 2 4 2 3 2 4 1 1 1 3 1 1 1 3 1 1 5 13 3 9 2 7 2 9 2 11 2 17 1 14 1 18v422l-2 33-2 16-2 11-2 9-4 14-5 12-2 5-5 10-2 3-2 4-3 4-3 5-3 4-3 4-2 2-2 3-7 7-2 3-3 2-7 7-3 2-2 2-3 2-4 3-5 3-4 3-6 3-3 2-10 5-3 1-1 1-11 4-13 4-9 2-11 2-16 2-30 2H297l-30-2-16-2-11-2-9-2-13-4-6-2-5-2-1-1-5-2-10-5-3-2-4-2-4-3-5-3-4-3-4-3-2-2-3-2-7-7-3-2-2-3-7-7-2-3-2-2-2-3-3-4-3-5-3-4-3-6-2-3-5-10-5-13-1-2-4-14-2-9-2-11-2-16-2-33V301l1-18 1-14 2-17 2-11 2-9 4-13 2-6 4-10 1-1 1-3 1-1 1-3 2-3 2-4 2-3 2-4 3-4 2-3 3-4 3-4 2-2 2-3 17-17 3-2 2-2 3-2 4-3 4-3 5-3 4-2 3-2 4-2 1-1 3-1 1-1 5-2 4-2 11-4 13-4 9-2 12-2 17-2 15-1Z" fill="#6877f0"/><path d="M305 100h414l20 1 15 1 17 2 12 2 9 2 13 4 6 2 7 3 4 2 3 1 1 1 3 1 3 2 4 2 3 2 4 2 4 3 3 2 4 3 4 3 2 2 3 2 17 17 2 3 2 2 2 3 3 4 3 4 3 5 2 4 2 3 2 4 1 1 1 3 1 1 1 3 1 1 5 13 3 9 2 7 2 9 2 11 2 17 1 14 1 18v193h-1l-1-10-1-5-2 3h-9v-2l-51 1-1 1h-12v-2l-51 1-1 1h-12v-2l-25 1-4 4h-26l-1 1-5 2-4 2h-3v-2h-8v2h-6v-2l-3 1-1 1-3 1-1 3h-1l-1-6-1 149-1 15-2 10-3 9-2 3-2 5-3 5-2 2-2 3-10 10-3 2-4 3-8 4-11 4-5 1-2 1-10 2-10 1h-21l-6-1-6-2-7-3-5-3-3-2-4-3-8-8-3-5-2-3-4-8-3-10-1-6v-13l2-11 2-5 2-5 3-5 2-3 3-4 9-9 3-2 3-2 5-3 4-2 11-4 10-3 18-4 16-3 13-3 5-2 3-2 2-3h2v-2l1-1 1-3 1-151v-39l-2-5-2-2-2-1h-9l-12 2-4 1h-6v2l-10 2-12 1-2 1-8 1-2 1-8 1-2 1-8 1-2 1-16 3-3 1-7 1-3 1-7 1-3 1-8 1-2 1-8 1-2 1-8 1-2 1-8 1-10 2-2 1-8 1-2 1-6 1-3 1-7 1-3 1-10 2-4 1-4 2-3 3-2 5v202l-1 74-2 12-2 8-3 7-4 8-3 4-2 3-3 4-6 6-3 2-4 3-5 3-6 3-5 2-4 1-2 1-5 1-3 1-7 1-4 1-14 1h-8l-10-1-7-2-7-3-5-3-3-2-4-3-7-7-2-3-2-2-3-6-1-1-4-10-2-10v-17l2-9 2-6 4-8 3-4 2-3 10-10 5-3 3-2 8-4 11-4 15-4 29-6 13-3 4-2 4-3 2-3 2-4 1-4V467l-2-3-1-3-4-1-1 2h2v2h-2v6h-6v4h-4v-2l-3 1h-2l-4-4-3-1-5-5h-6l-1 1h-2l-3-3-7-1-3-3h-8l-1-1-1-3-9-1-3-3-19-1-1-1h-6l-1 1h-16l-1-1h-2l-1 1h-36l-1-1h-6l-1 1h-16l-1-1h-2l-1 1h-36l-1-1h-6l-1 1h-16l-1-1h-2l-1 1h-33l-2-2-1 5-1 38h-1V301l1-18 1-14 2-17 2-11 2-9 4-13 2-6 4-10 1-1 1-3 1-1 1-3 2-3 2-4 2-3 2-4 3-4 2-3 3-4 3-4 2-2 2-3 17-17 3-2 2-2 3-2 4-3 4-3 5-3 4-2 3-2 4-2 1-1 3-1 1-1 5-2 4-2 11-4 13-4 9-2 12-2 17-2 15-1Z" fill="#dd608a"/><path d="M105 740h9v2h2v-2h2v2h4v-2h6v2h4v-2h46v2h2v-2h2v2h4v-2h6v2h4v-2h4v6h2v2h4v-2h2v-2h4v2h10v6h8v2h2v-2h2v4h2v2h8v6h8v2h-8v4h-2v4h-8v6h-2v2h-4v-2h-4v2h-4v6h-2v2h-6v-2h-4v2h-4v-2h-4v2h-2v4h4v2h4v-2h2v2h2v4h2v2h8v-2h6v2h2v2h2v2h10v2h2v4h10v2h2v4h2v2h2v-2h4l2 2v2h2l1 3 7 1 2 3 4 1v2h8l1 2 2 1 5 1v2h8v2h6v2h9l3 2v2h2v-2h6v2h30v-2l10-1 1-1h9v-2h10v-2h2v-2h2v2h4v-2l4-1 1-1h3v-2h6v-2h4v-2h4v-2h6v-2h2v-2h2v-2l2-2h4v2h4v-4h2v-2h2v-2h4v2h4v-4h2v-2h8v-2h2v2h2v-2h2v-2h2v-2h2v-2h2v2h2v-2h6v2h10v-2h6v2h8v-2h2v2h2v-2h2v2h4l2 3 4 1v2h4v-2h2v2h6v-2h4v2h4v2h4v2h8v2h2v-2h12v2h9l1 1 12 1 1 1 11 1v-2h4v2l16-1 1-1h15v-2l12-1 8 1v-2h2v2h2v-2h8v-2h4v-2h6v-2h10v2l6-1 2-3h4v-2h4v-2h12v2h4v-2h4v2h4v-2h2v-2h2v-2h4v-2h10v2h6v-4h2v6h2v-2h10v-2h4v2h12v2h6v-2h6v2h4v-2h6v2h4v-2h2v-2h4v2h16v-2h4v2h12v2h6v-2h6v2h4v-2h6v2h4v-2h2v-2h4v2h16v-2h4v2h10v8h-2l1 5v4l-4 10-5 10-2 3-2 4-3 4-3 5-3 4-3 4-2 2-2 3-7 7-2 3-3 2-7 7-3 2-2 2-3 2-4 3-5 3-4 3-6 3-3 2-10 5-3 1-1 1-11 4-13 4-9 2-11 2-16 2-30 2H297l-30-2-16-2-11-2-9-2-13-4-6-2-5-2-1-1-5-2-10-5-3-2-4-2-4-3-5-3-4-3-4-3-2-2-3-2-7-7-3-2-2-3-7-7-2-3-2-2-2-3-3-4-3-5-3-4-3-6-2-3-5-10-3-8-1-6-1-2-2-7-1-5-1-2-1-7-1-2-1-10-1-3v-14l-2-6v-4l1-4Z" fill="#608bf7"/><path d="M662 241h15l3 1 2 2 2 1 3 5 1 3 1 9v375l-1 15-2 10-3 9-2 3-2 5-3 5-2 2-2 3-10 10-3 2-4 3-8 4-11 4-5 1-2 1-10 2-10 1h-21l-6-1-6-2-7-3-5-3-3-2-4-3-8-8-3-5-2-3-4-8-3-10-1-6v-13l2-11 2-5 2-5 3-5 2-3 3-4 9-9 3-2 3-2 5-3 4-2 11-4 10-3 18-4 16-3 13-3 5-2 3-2 2-3h2v-2l1-1 1-3 1-151v-39l-2-5-2-2-2-1h-9l-12 2-4 1h-6v2l-10 2-12 1-2 1-8 1-2 1-8 1-2 1-8 1-2 1-16 3-3 1-7 1-3 1-7 1-3 1-8 1-2 1-8 1-2 1-8 1-2 1-8 1-10 2-2 1-8 1-2 1-6 1-3 1-7 1-3 1-10 2-4 1-4 2-3 3-2 5v202l-1 74-2 12-2 8-3 7-4 8-3 4-2 3-3 4-6 6-3 2-4 3-5 3-6 3-5 2-4 1-2 1-5 1-3 1-7 1-4 1-14 1h-8l-10-1-7-2-7-3-5-3-3-2-4-3-7-7-2-3-2-2-3-6-1-1-4-10-2-10v-17l2-9 2-6 4-8 3-4 2-3 10-10 5-3 3-2 8-4 11-4 15-4 29-6 13-3 4-2 4-3 2-3 2-4 1-4V489l1-175 1-5 2-5 2-4 4-4 5-3 10-3 9-2 16-3 30-6 14-3 16-3 14-3 85-17 14-3 16-3 14-3Z" fill="#dfd6f6"/><path d="M305 100h414l20 1 15 1 17 2 12 2 9 2 13 4 6 2 7 3 4 2 3 1 1 1 3 1 3 2 4 2 3 2 4 2 4 3 3 2 4 3 4 3 2 2 3 2 17 17 2 3 2 2 2 3 3 4 3 4 3 5v5l2 1v2l1 1v4h2v4h2l1 1v3l2 1-1 4h2l1 1v5h-1l-1-1v-2h-6l-1-1-10-1h-2v2h-7l-2-2h-5v2h-1l-1-1h-8l-1 1h-14l-1-1h-4l-1 1h-6l-1-1-10-1h-2v2h-7l-1-1h-6l-1 1h-1v-2l-8 1-1 1h-15v-2l-4 1-1 1h-7v-2l-12 1-1 1h-7v-2l-6 1-1 1h-1v-2l-8 1-1 1h-15v-2l-4 1-1 1h-7v-2l-12 1-1 1h-7v-2l-6 1-1 1h-1v-2l-8 1-1 1h-15v-2l-4 1-1 1h-7v-2l-12 1-1 1h-7v-2l-6 1-1 1h-1v-2l-8 1-1 1h-15v-2l-4 1-1 1h-7v-2l-12 1-1 1h-7v-2l-6 1-1 1h-1v-2l-8 1-1 1h-15v-2l-4 1-1 1h-7v-2h-12v2h-7l-1-1-6-1v2h-2v-2h-8v2h-15l-1-1-4-1v2h-7l-1-1-12-1v2h-7l-1-1-6-1v2h-2v-2h-8v2h-15l-1-1-4-1v2h-7l-1-1-12-1v2h-7l-1-1-6-1v2h-2v-2h-8v2h-15l-1-1-4-1v2h-7l-1-1-12-1v2h-7l-1-1-6-1v2h-2v-2h-8v2h-15l-1-1-4-1v2h-7l-1-1-12-1v2h-8v-2h-6v2h-2v-2h-8v2h-16v-2h-4v2h-8v-2h-12v2h-8v-2h-6v2h-2v-2h-8v2h-16v-2h-4v2h-8v-2h-10v2l-1 2h-1l-1-4 2-2v-4l1-1 1-5 1-3 2-3 2-4 2-3 2-4 3-4 2-3 3-4 3-4 2-2 2-3 17-17 3-2 2-2 3-2 4-3 4-3 5-3 4-2 3-2 4-2 1-1 3-1 1-1 5-2 4-2 11-4 13-4 9-2 12-2 17-2 15-1Z" fill="#ed607a"/><path d="M642 370h9l3 2 2 2 2 5v39l-1 151-1 3-2 3h-2v2l-3 3-4 2-7 2-9 2-16 3-18 4-13 4-10 4-4 2-3 2-3 2-4 3-8 8-2 3-2 3-3 5-2 5-2 5-2 11v13l2 10 2 6v2h-1l-1-1v-3h-2l-1-6h-1l-1-19v10l-1 10 1 1v16l1 16 1 3v9l1 5-1 5-1 1-1 8h-2v-2h-2v3h-1l-6-6-1-2-1-4-1-1v-2h-4v-4h-4v-2h-4v-6h-6v-2h-2v2h-2v-6h-12v-2h-8v2h-4v2h-12v-4h-4v2h-2v6h-2v2h-4v-2h-4v4h2v2h-4v4h-2v8h-4v4h-2v4h-4l-1-4-1-1v-5h-2l-1-1v-12h-2l-1-1h-1l-1 2h-1v-3l2-12 1-74V423l2-5 4-4 4-2 8-2 6-1 3-1 7-1 3-1 6-1 2-1 8-1 2-1 10-2 8-1 2-1 8-1 2-1 8-1 2-1 8-1 3-1 7-1 3-1 7-1 3-1 16-3 2-1 8-1 2-1 8-1 2-1 8-1 2-1 12-1 5-1h5v-2l10-2Z" fill="#8e68df"/><path d="M103 443h1l1 4h33l1-1h2l1 1h16l1-1h6l1 1h36l1-1h2l1 1h16l1-1h6l1 1h36l1-1h2l1 1h16l1-1h6l1 1 19 1 3 3 9 1 1 1 1 3h8l3 3 7 1 3 3h2l1-1h6l5 5 3 1 4 4h5v2h4v-4h6v-6h2v-2h-2v-3l5 1 1 1 2 5 1 1v140l-2 10h-1l-1-2-5-1v-2h-4v2h-24v-2h-6v2h-8v-2h-4v2h-18v-2h-4v2h-24v-2h-6v2h-8v-2h-4v2h-18v-2h-4v2h-24v-2h-6v2h-8v-2h-4v2h-18v-2h-4v2h-24v-2h-6v2h-8v-2h-4v2h-18v-2l-3 1-2 2-19-1h-2v95l1 10 1 3 1 12v7l-1 4v4l2 6v14l1 3 1 10 1 2 1 7 1 2 1 5 2 7 1 2v4h-1l-2-5-4-14-2-9-2-11-2-16-2-33V489l1-38 1-5Z" fill="#9f67c7"/><path d="M920 602h1l1 11h1v96l-1 10-1 3-1 12v7l1 4v4l-1 3-1 1v16l-1 3-1 9-1 3-1 7-1 2-1 5-2 7-2 4h-1v-5l1-1v-5l1-2h-10v-2h-4v2h-16v-2h-4v2h-2v2h-4v-2h-6v2h-4v-2h-6v2h-6v-2h-12v-2h-4v2h-16v-2h-4v2h-2v2h-4v-2h-6v2h-4v-2h-6v2h-6v-2h-12v-2h-4v2h-10v2h-2v-10h-2v2h-6v-2h-6v2h-4v-2h-8v2h-4v-6h2v-4h-2v2h-10v-2h-2v-6h2v-2h-6v2h-4v-6h-2v-2h4v-2h-6v-4h-2v-2h-2v-6h-4v-4h2v-4h-2v-2h-5v-2l1-4h2v-3l1-2-1-1v-2h-2v-6h-2v-5l1-1 1-4v-5l1-2 1-7v-2l1-5 1-3 1-3 1-2 1-4 1-7 2-10v-5l1-1 1-5 1-1v-4l1-7 1-1h3l-2-3v-1l3-2 1-6h3l1 1h4l2-3h-2v-2h14v-2h4v-2h22v-4h6v-2h4v2l18-1 1-1h2l1 1h8l1-1h5v2h23l2-2h3v2l18-1 1-1h2l1 1h8l1-1h5v2h23l2-2h3v2h18v-2h3l1 1h1Z" fill="#7373f7"/><path d="M689 271h1l1 14h2l6 6h2l1 1v3h2l3 2 4 4 7 1 1 1 3 1 3 3h4l1-1h2l3 3 5 1 1 1 9 1 3 3 9 1 3 3 13 1 1 1h2l1-1h8l1 1h10l1-1h24l1 1h2l1-1h12l1 1h2l1-1h8l1 1h10l1-1h24l1 1h2l1-1h12l1 1h2l1-1h8l2 2 1-7h1v-32h1l1 18v193h-1l-1-10-1-5-2 3h-9v-2l-51 1-1 1h-12v-2l-51 1-1 1h-12v-2l-25 1-4 4h-26l-1 1-5 2-4 2h-3v-2h-8v2h-6v-2l-3 1-1 1-3 1-1 3h-1l-1-6-1-20Z" fill="#ab67bc"/><path d="M101 283h1v20l-1 15h2l1 3 1-1h17l1 1h2l1-1h12l1 1h2l1-1h8l1 1h10l1-1h24l1 1h2l1-1h12l1 1h2l1-1h8l1 1h10l1-1h24l1 1h2l1-1h12l1 1h2l1-1h8l1 1h10l1-1h24l1 1h2l1-1 9-1 1-3 4-1h27l4-4h2l2-2 7 1 1 1h8l4-4h3l3-2 2-3h2v2l-2 5-1 5-1 153h-1l-2-3-1-3-4-1-1 2h2v2h-2v6h-6v4h-4v-2l-3 1h-2l-4-4-3-1-5-5h-6l-1 1h-2l-3-3-7-1-3-3h-8l-1-1-1-3-9-1-3-3-19-1-1-1h-6l-1 1h-16l-1-1h-2l-1 1h-36l-1-1h-6l-1 1h-16l-1-1h-2l-1 1h-36l-1-1h-6l-1 1h-16l-1-1h-2l-1 1h-33l-2-2-1 5-1 38h-1V301Z" fill="#b568b2"/><path d="M105 740h9v2h2v-2h2v2h4v-2h6v2h4v-2h46v2h2v-2h2v2h4v-2h6v2h4v-2h4v6h2v2h4v-2h2v-2h4v2h10v6h8v2h2v-2h2v4h2v2h8v6h8v2h-8v4h-2v4h-8v6h-2v2h-4v-2h-4v2h-4v6h-2v2h-6v-2h-4v2h-4v-2h-4v2h-2v4h4v2h4v-2h2v2h2v4h2v2h8v-2h6v2h2v2h2v2h10v2h2v4h10v2h2v4h2v2h2v-2h4l2 2v2h2l1 3 7 1 2 3 4 1v2h8l1 2 2 1 5 1v2h8v2h6v2h9l3 2v2h2v-2h6v2h30v-2l10-1 1-1h9v-2h10v-2h2v-2h2v2h4v-2l4-1 1-1h3v-2h6v-2h4v-2h4v-2h6v-2h2v-2h2v-2l2-2h4v2h4v-4h2v-2h2v-2h4v2h4v-4h2v-2h8v-2h2v2h2v-2h2v-2h2v-2h2v-2h2v2h2v-2h6v2h10v-2h6v2h8v-2h2v2h2v-2h2v2h4l2 3 4 1v2h4v-2h2v2h6v-2h4v2h4v2h4v2h8v2h2v-2h12v2h9l1 1 12 1 1 1 11 1v-2h4v2l16-1 1-1h15v-2l12-1 8 1v-2h2v2h2v-2h8v-2h4v-2h6v-2h10v2l6-1 2-3h4v-2h4v-2h12v2h4v-2h4v2h4v-2h2v-2h2v-2h4v-2h10v2h6v-4h2v6h2v-2h10v-2h4v2h12v2h6v-2h6v2h4v-2h6v2h4v-2h2v-2h4v2h16v-2h4v2h12v2h6v-2h6v2h4v-2h6v2h4v-2h2v-2h4v2h16v-2h4v2h10v8h-2l1 5v4l-4 10-5 10-2 3-2 4h-2l1-3v-2h-1l-2 3h-6v-2h-4v2h-8v-2h-2v2h-2v-2h-8v2h-8v-2h-4v2h-8v-2h-4v4h-4v-2h-2v-2h-4v2h-6v-2h-4v2h-8v-2h-2v2h-2v-2h-8v2h-8v-2h-4v2h-8v-2h-4v4h-4v-2h-2v-2h-4v2h-6v-2h-4v2h-8v-2h-2v2h-2v-2h-8v2h-10v2l-3 1-1 1h-6v2h-2v-2h-2v2h-2v2h-4v-4h-4v2h-4v-2h-6v2h-20v2l-9 1-1 1h-22v2l-15 1-1 1h-2l-1-1-3-1v-2h-2v2l-3 1-1 1h-4v-4h-10v2h-6v-2h-4v2h-6v-2h-6v2h-2v-2l-3 2h-4l-2-1-11-1v-2h-2v2h-2v-2h-6v-2h-12v-2h-12v2h-2v2h-4v-4h-4v2h-4v-2h-6v2h-16v-2h-6v2l-4 4h-4v2h-2v-2h-8v2h-6v-2h-6v2h-2v2h-4v2h-4v2h-10v-2h-4v2l-3 1-1 1h-2v2l-5 1-1 1h-16v2h-10v2l-7 1-2 1h-47v-2h-2v2h-10v-2h-2v2h-2l-1-1-9-1v-2h-6v-2h-10v-2h-2v2h-6v-2h-6v-2h-2l-1-1-11-1v-2h-8v-2h-2l-1-1-7-1v2h-6v-4h-4v2h-4v2h-2l-2-2v-2h-2v-2h-2v-2h-8v-2h-8l-1-3-1-1v-2h-2v4h-4v-2h-2v-2h-4v2h-6v-2h-4v2h-8v-2h-2v2h-2v-2h-8v2h-8v-2h-4v2h-8v-2h-4v4h-1l-3-4-1-1v2l1 3h-2l-3-6-2-3-5-10-3-8-1-6-1-2-2-7-1-5-1-2-1-7-1-2-1-10-1-3v-14l-2-6v-4l1-4Z" fill="#6880ef"/><path d="M689 468h1l1 20 1 3 1-1 3-1 1-1h3v2h6v-2h8v2l5-2 4-2 3-1 1-1h26l4-4h25v2l12-1 1-1h51v2l12-1 1-1h51v2l9-1 1-8h1l2 11 1 10v229l-2 33-2 16-2 11-2 9-4 14-2 5h-1v-4l1-2 2-7 1-5 1-2 1-7 1-3 1-9 1-3v-16l1-1 1-3v-4l-1-4v-7l1-12 1-4 1-9v-95h-1l-1-1-1 1h-1l-1-1-3-1v2h-18v-2l-3 1-2 2-23-1v-2l-5 1-1 1h-8l-1-1h-2l-1 1h-18v-2l-3 1-2 2-23-1v-2l-5 1-1 1h-8l-1-1h-2l-1 1h-18v-2h-4v2h-6v4h-22v2h-4v2h-14v2h2v2l-2 2h-4l-1-1-3-1v6l-1 1h-1v-3h-4v-4h-4v-2h-6l-2-4-1 9h-1v-55h-1Z" fill="#8e68df"/><path d="M642 370h9l3 2 2 2 2 5v39l-1 78-2 1-23-1v2l-5 1-1-1v-2h-2v2h-14v2l-21 1-1 1-17 1-4 2h-12l-2 1-15 1-10 2h-9l-2 1-26 1-2 1-4 1h-24l-1-1h-7l-5 1-1-2-9-1v8h4v-2h2v2h4v2h-11l-3-2v3l-1 1h-2l-3-3h-3l-1-54v-42l2-5 4-4 4-2 8-2 6-1 3-1 7-1 3-1 6-1 2-1 8-1 2-1 10-2 8-1 2-1 8-1 2-1 8-1 2-1 8-1 3-1 7-1 3-1 7-1 3-1 16-3 2-1 8-1 2-1 8-1 2-1 8-1 2-1 12-1 5-1h5v-2l10-2Z" fill="#9d60bd"/><path d="M392 607h1v12l-1 4-3 6-3 3-5 3-2 1-13 3-15 3-18 4-14 4-10 4-8 4-4 3-3 2-9 9-3 5-2 3-3 6-3 10-1 5v17l2 10 1 2v3h-1l-2-4-2-9v11l-2 1-1 3-1 1h-3v-10h-2v-4h-2v-4h-4v-4h-3l-2 2-1 2h-2v2h-6v2h-6v-2h-4v2h-2v2h-2v4h-2v2h-8v-2h-6v2h-6v-2h-4v2h-2v6h-10v2h-2v-2h-22v2h-8v-2h-4v-2h-12v2h-16v2h-2v-2h-19l-1-2-1-12-1-4-1-9v-96h4l18 1 2-2h3v2h18v-2h4v2h8v-2h6v2h24v-2h4v2h18v-2h4v2h8v-2h6v2h24v-2h4v2h18v-2h4v2h8v-2h6v2h24v-2h4v2h18v-2h4v2h8v-2h6v2h24v-2h4v2h5l1 1Z" fill="#8368eb"/><path d="M662 241h15l3 1 2 2 2 1 1 4 1 2v8l-1 3h-4l-4 4-1 3-2 2v5l-2 3v4l-1 1-1 6v4l-1 3-1 6v15l-2 3v4l-2 2v2l-2 2-1 3-4 4h-2l-2 2h-6l-4 1h-12l-1-1h-11l-3 1h-8l-5 2h-4l-7 1-1 1h-2l-7 1-1 1h-2l-7 1-1 1h-2l-4 1-3 1h-3l-4 1-3 1h-3l-4 1-3 1h-3l-4 1-3 1h-3l-4 1-3 1h-3l-4 1-3 1-7 1-3 1-7 1-3 1-7 1-3 1-7 1-3 1-5 1-3 1-5 1-3 1-3 1-3 1-3 1-3 1-12 1h-3l-4-2-1-1-3-1-1-1-1-3-1-1-2-5v-3l-2-7v-3l-2-9v-5l-1-4-1-2-1-5-1-1-1-7-5-5-4-1v3h-1v-10l3-5 2-2 5-3 5-2 11-3 16-3 14-3 16-3 14-3 16-3 14-3 15-3 14-3 16-3 14-3 16-3 14-3 15-3h4v-2l14-3 16-3Z" fill="#f8f8f8"/><path d="M100 489h1l1 44 1 5h13l1 1h2l1-1 29-1 1-1h4l1 1 25 1 1 1h2l1-1 29-1 1-1h4l1 1 25 1 1 1h2l1-1 29-1 1-1h4l1 1 25 1 1 1h2l1-1 19-1 1-3 15-1 1-1h2l1 1h6l1-1h6v-2l5-1 1-1h10v2h2v-2h7v-3l1-3h1l1 12 1 33v40l-2 10h-1l-1-2-5-1v-2h-4v2h-24v-2h-6v2h-8v-2h-4v2h-18v-2h-4v2h-24v-2h-6v2h-8v-2h-4v2h-18v-2h-4v2h-24v-2h-6v2h-8v-2h-4v2h-18v-2h-4v2h-24v-2h-6v2h-8v-2h-4v2h-18v-2l-3 1-2 2-19-1h-2v95l1 10 1 3 1 12v7l-1 4v4l2 6v14l1 3 1 10 1 2 1 7 1 2 1 5 2 7 1 2v4h-1l-2-5-4-14-2-9-2-11-2-16-2-33Z" fill="#8f68e0"/><path d="M101 283h1v20l-1 15h2l1 3 1-1h17l1 1h2l1-1h12l1 1h2l1-1h8l1 1h10l1-1h24l1 1h2l1-1h12l1 1h2l1-1h8l1 1h10l1-1h24l1 1h2l1-1h12l1 1h2l1-1h8l1 1h10l1-1h24l1 1h2l1-1 9-1 1-3 4-1h27l4-4h2l2-2 7 1 1 1h8l4-4h3l3-2 2-3h2v2l-2 5-1 5-1 55h-1l-1-5-1-1-1 3-1 3-1 2h-2v2l-2 3-2 3-3 6-1 1-1 3-1 1-2 5-2 1-1 2h-2v2l-3 2h-11v-4h-2v-2h-2l-1-1-9-1v-2h-4v-2h-10v-4h-2v-2h-2v2h-4v-6h-2v2h-6v-2h-2v2h-6v-2h-2v2h-2l-1-1-5-1v2h-4v-2h-14v2h-8v-2h-4v2h-6v-2h-4v2h-6v-2h-2v2h-6v-2h-2v2h-2l-1-1-5-1v2h-4v-2h-14v2h-8v-2h-4v2h-6v-2h-4v2h-6v-2h-2v2h-6v-2h-2v2h-2l-1-1-5-1v2h-4v-2h-14v2h-8v-2h-4v2h-6v-2l-3 1-1 1h-6v-2h-2v2h-6v-2h-2v2h-2l-2-2-1 4h-1l-1-1-1-45v-37ZM689 271h1l1 14h2l6 6h2l1 1v3h2l3 2 4 4 7 1 1 1 3 1 3 3h4l1-1h2l3 3 5 1 1 1 9 1 3 3 9 1 3 3 13 1 1 1h2l1-1h8l1 1h10l1-1h24l1 1h2l1-1h12l1 1h2l1-1h8l1 1h10l1-1h24l1 1h2l1-1h12l1 1h2l1-1h8l2 2 1-7h1v-32h1l1 18v193h-1l-1-110h-1l-1-4h-6v2h-8v-2h-4v2h-6v-2l-3 1-1 1h-6v-2h-2v2h-6v-2h-2v2h-2l-1-1h-4l-1 1h-4v-2l-13 1-1 1h-8v-2l-3 1-1 1h-6v-2l-3 1-1 1h-6v-2h-2v2h-6v-2h-2v2h-2l-1-1h-4l-1 1h-4v-2l-13 1-1 1h-8v-2l-3 1-1 1-5 1-3 3-7 1-1 1h-2v2h-8v4h-12v2h-4v2l-4 4h-12v-4h-2v-2h-2l-1-4-3-2v-6l-2-5-2-1v-2h-2v-7l-2-2-2-1-2-5v-2l-2-4v-6l-1-1-1-3-1 1-1 14h-1Z" fill="#c8689f"/><path d="M424 465h1v54h2v-8h1l1 8 2 2h2l1-3h2l1 1 11 1v-2h-4v-2h-2v2h-4v-8h9l2 2 4-1h7l1 1h24l4-1 2-1 26-1 2-1h10l9-2 15-1 2-1h12l4-2 17-1 1-1h21v-2h14v-2h2l1 2h5v-2h25v73l-1 3-1 1h-1l-1-1h-1l-2 2h-6v-2h-4v2h-60v2h-4v-2h-60v2h-4v-2h-60v2h-4v-2h-19l-1-1h-3v7h-1Z" fill="#9868d7"/><path d="M683 241h4l2 2h4l1-1 3-1h2l2 2 17 1 1 1 9 1 1 1h4l1-1h4l1 1 11 1 1 1h2l1-3h4l1 1h10l1-1h4l1 1h22l1-1h4l1 1 11 1 1 1h2l1-3h4l1 1h10l1-1h4l1 1h22l1-1h4l1 1 11 1 1 1h2l1-3h4l1 1h10l1-1h4l1 1 12 1 1 5 1 2 2 1v2l-1 3v3l1 14h1v15l1-10h1l1 20v15h-1l-1 13h-1l-1-9-1-1h-8l-1 1h-2l-1-1h-12l-1 1h-2l-1-1h-24l-1 1h-10l-1-1h-8l-1 1h-2l-1-1h-12l-1 1h-2l-1-1h-24l-1 1h-10l-1-1h-8l-1 1h-2l-1-1-13-1-3-3-9-1-3-3-9-1-1-1-5-1-3-3h-2l-1 1h-4l-3-3-3-1-1-1-7-1-5-5-4-2-1-3h-2l-6-6h-3l-1-15-2-18-2-5-1-1v-2h-2l-2-2v-1Z" fill="#d86090"/><path d="M920 602h1l1 11h1v10l-1 1h-2v48h-2v-2h-2v2h-2v-2h-8v2h-4v2h-2v-4h-4v2h-14v-2h-2v6h-6v-4h-2v2h-6v-2h2v-2h-6v-2h-2v4h-6v-2h-2v2h-2v-2h-8v2h-4v2h-2v-4h-4v2h-14v-2h-2v6h-6v-4h-2v2h-6v-2h2v-2h-6v-2h-2v4h-6v-2h-2v2h-2v-2h-8v2h-4v2h-2v-4h-4v2h-2v4h-2v12h2v4h-2v4h-4v2h-6v2h-6v-2h-2v4h-2v2h-2v-2h-8v2h-2v6h-8v2h-2v4h-2v-2h-4v4h-2v2h-2v2h-4v4h-8v6h-2v2h-6l1-3-1-1v-2h-2v-6h-2v-5l1-1 1-4v-5l1-2 1-7v-2l1-5 1-3 1-3 1-2 1-4 1-7 2-10v-5l1-1 1-5 1-1v-4l1-7 1-1h3l-2-3v-1l3-2 1-6h3l1 1h4l2-3h-2v-2h14v-2h4v-2h22v-4h6v-2h4v2l18-1 1-1h2l1 1h8l1-1h5v2h23l2-2h3v2l18-1 1-1h2l1 1h8l1-1h5v2h23l2-2h3v2h18v-2h3l1 1h1Z" fill="#8168eb"/><path d="M920 473h1l2 11v51l-2 9h-1v-8l-3 2-29 1-1 1h-2l-1-1-25-1-2-2-3 1-1 1-29 1-1 1h-2l-1-1-25-1-2-2-3 1-1 1-29 1-1 1h-2l-1-1-25-1-1-1h-4l-1 1-29 1-1 1h-2l-1-5-1 4h-1v-51h1l1 3 1-1 3-1 1-1h3v2h6v-2h8v2l5-2 4-2 3-1 1-1h26l4-4h25v2l12-1 1-1h51v2l12-1 1-1h51v2l9-1Z" fill="#9f68c8"/><path d="M690 554h1v57h1l1 9 1 2v2h6v2h4v4h4v4l-1 1 1 1v2l-3 1-1 7v4l-1 1-1 5-1 1v5l-2 10-1 7-1 4-2 4v2l-1 2-1 5v3l-1 6-1 3v4l-1 4-1 1v6l-2 2-1 7-1 1-1 3h-2v6l-1 1-1 3-2 3-2 3-5 5-1 3-12 12h-2v2l-3 1-1 1-3 1-3 3-3 1-1 1-5 1-1 1h-6v2l-7 1-2 1h-3v-2h-4v2h-10v-2h-12v-2h-8l-1-1-3-1v-2h-4v-2h-4v-2h-4l-1-3-3-1-2-2v-4h-2l-3-3-3-2-1-2-3-2-1-4-1-1-1-3-1-1-1-3-1-1-1-3-2-2v-4l-1-2-1-4-1-2-1-4-1-2-1-5v-9l-1-2-1-16v-16l-1-1 1-10v-11l1-4h1l1 23h1v7h2l1 3 2 1 4 8 3 4 2 3 7 7 3 2 3 2 5 3 10 4 3 1 6 1h21l10-1 10-2 2-1 5-1 6-2 7-3 6-3 4-3 4-3 9-9 2-3 3-4 2-4 1-3 2-3 3-9 2-10 1-15 1-63Z" fill="#6860d0"/><path d="M691 339h1l1 6 1 3 1 1v6l2 4v2l1 2v3h2l3 3-1 7h2v2h2l2 3 1 3v2l-1 4h2l2 2v4h2v2h2v4l12-1 3-3 1-2h4v-2h12v-4h8v-2l3-2 7-1 3-3 5-1 1-1h3v2l8-1 1-1h13v2l4-1 1-1h4l3 2v-2h2v2h6v-2h2v2l6-1 1-1h3v2l6-1 1-1h3v2l8-1 1-1h13v2l4-1 1-1h4l3 2v-2h2v2h6v-2h2v2l6-1 1-1h3v2h6v-2h4v2h8v-2h6v-5h1l1 8h1v43h-2v11h-1l-1-6-19-1v2h-4v-2h-17l-1-1-4-1v2h-38v2h-4v-2h-17l-1-1-4-1v2h-38v2h-4v-2h-3l-1-1v-3h-8v-2h-2v-2h-6v-2h-2v-2h-2v-2h-6v2h-6v-2h-2v6h-2v4h-2v6h-2v2h-2v4h-2v4h-2v4h-4v2h-4v-2h-6v2h-6v2h4v2h-4v2h-4l-1 18-1 8h-1l-1-58v-76Z" fill="#b768b0"/><path d="M109 280h4l1 1h6l1-1h3v2h20v-2h4v2h6v-2h4v2h14v-2h6v2h6v-2h4v2h20v-2h4v2h6v-2h4v2h14v-2h6v2h6v-2h4v2h20v-2h3l1 1 6 1v-2h4v2h14v-2h5l1 1 6 1v-2h4v2h20v-2h3l1 1 6 1v-2h4v2h14v-2h5l1 1 6 1v-2h4l2 3 2 2 6 1v-2h4v2h8v-2h14v2l-5 3-4 1-3 2-1 3-3 1h-2v3l-1 3h-2v2l-3 3-2 1h-3l-4 4h-8l-1-1-7-1-2 2h-2l-4 4h-31v3l-1 1-9 1-1 1h-2l-1-1h-24l-1 1h-10l-1-1h-8l-1 1h-2l-1-1h-12l-1 1h-2l-1-1h-24l-1 1h-10l-1-1h-8l-1 1h-2l-1-1h-12l-1 1h-2l-1-1h-24l-1 1h-10l-1-1h-8l-1 1h-2l-1-1h-12l-1 1h-2l-1-1h-17l-1 8h-1v-11h-2v-15l1-20h1l1 8 1-9 3-1Z" fill="#d06198"/><path d="M390 522h1l1 12v47h-1l-1-9v1l-2 3h-4v-2h-60v2h-4v-2h-60v2h-4v-2h-60v2h-4v-2h-60v2h-4v-2l-23 1-1 5h-1l-2-5v-42h1l1 5h13l1 1h2l1-1 29-1 1-1h4l1 1 25 1 1 1h2l1-1 29-1 1-1h4l1 1 25 1 1 1h2l1-1 29-1 1-1h4l1 1 25 1 1 1h2l1-1 19-1 1-3 15-1 1-1h2l1 1h6l1-1h6v-2l5-1 1-1h10v2h2v-2h7v-3Z" fill="#9767d8"/><path d="M642 370h9l3 2 3 9v6h-2v3l-10 5-2 2h-2v2l-2 2h-2l-1 1-3 1-2 2h-4v2l-1 1-5 1-1 1h-4v2h-2v2l-3 1-1 1-3 1-1 1-3 1-1 1-3 1-1 1-3 1-3 3-10 4-5 1-1 1-5 1-4 4-3-1v-2h-2v2h-2v2l-3 1-1 1h-2l-1-1-1 1-5 1-2 1-5 1-7 2-2 1-14 3-1 1-9 1-1 1-13 1-1 1h-12v2h-6l-1-1-9-1v-2h-6v-2h-8l-1-1-3-1-1-1-3-1v2h-2l-3-3-4-1-2-1-4-1-2-3v-14l1-4 2-5 2-2 4-2 8-2 6-1 3-1 7-1 3-1 6-1 2-1 8-1 2-1 10-2 8-1 2-1 8-1 2-1 8-1 2-1 8-1 3-1 7-1 3-1 7-1 3-1 16-3 2-1 8-1 2-1 8-1 2-1 8-1 2-1 12-1 5-1h5v-2l10-2Z" fill="#90508d"/><path d="M103 341h1v7h38v-2h4v2h60v-2h4v2h60v-2h3l1 1 45 1 1 1v3h14v4h22l1 4 9 9 4 1v-2h2l1 6 1 1 1 6 3 2v2l-1 1-1 3-1 1-2 5-2 1-1 2h-2v2l-3 2h-11v-4h-2v-2h-2l-1-1-9-1v-2h-4v-2h-10v-4h-2v-2h-2v2h-4v-6h-2v2h-6v-2h-2v2h-6v-2h-2v2h-2l-1-1-5-1v2h-4v-2h-14v2h-8v-2h-4v2h-6v-2h-4v2h-6v-2h-2v2h-6v-2h-2v2h-2l-1-1-5-1v2h-4v-2h-14v2h-8v-2h-4v2h-6v-2h-4v2h-6v-2h-2v2h-6v-2h-2v2h-2l-1-1-5-1v2h-4v-2h-14v2h-8v-2h-4v2h-6v-2l-3 1-1 1h-6v-2h-2v2h-6v-2h-2v2h-2l-2-2-1 4h-1l-1-1v-34l1-1Z" fill="#c068a8"/><path d="M689 468h1l1 54v5h1l1 8v5l3-2 29-1 1-1h4l1 1 25 1 1 1h2l1-1 29-1 3-2h1l2 2 25 1 1 1h2l1-1 29-1 3-2h1l2 2 25 1 1 1h2l1-1 29-1 1-1h2l1 4 1-5h1v40l-1 1-1 4h-1l-1-5-19-1v2h-4v-2h-60v2h-4v-2h-60v2h-4v-2h-60v2h-4v-2h-11l-1-3-1-8-1 11h-1Z" fill="#9868d8"/><path d="M103 443h1l1 4h33l1-1h2l1 1h16l1-1h6l1 1h36l1-1h2l1 1h16l1-1h6l1 1h36l1-1h2l1 1h16l1-1h6l1 1 19 1 3 3 9 1 1 1 1 3h8l3 3 7 1 3 3h2l1-1h6l5 5 3 1 4 4h5v2h2v4h-2v2h-6v2h-4v6h-6v4h-8v-2h-10l-1-1h-2l-1 2h-1l-6-6h-4l-1 1h-4l-2-2-1-3h-34l-1 1h-12l-1-1h-50l-1 1h-12l-1-1h-50l-1 1h-12l-1-1-36-1-1-1h-1l-1 5h-1v-33l1-5Z" fill="#a868bf"/><path d="M540 627h1v7l-2 5-2 11v13l2 10 2 6v2h-1l-1-1v-3h-2l-1-6h-1l-1-19v10l-1 10 1 1v16l1 16 1 3v9l1 5-1 5-1 1-1 8h-2v-2h-2v3h-1l-6-6-1-2-1-4-1-1v-2h-4v-4h-4v-2h-4v-6h-6v-2h-2v2h-2v-6h-12v-2h-8v2h-4v2h-12v-4h-4v2h-2v6h-2v2h-4v-2h-4v4h2v2h-4v4h-2v8h-4v4h-2v4h-4l-1-4-1-1v-5h-2l-1-1v-12h-2l-1-1h-1l-1 2h-1v-3l1-5h2v-6l1-63h1l1-1h1l1 5 3 1v2h2v-2h16v2h8v-2h16v2h4v-2l15-1 3-3h16v2h4v-2h10v-2l2-2 3-1 1-1 4-1 1-1h2v-2Z" fill="#8068f0"/><path d="M101 619l3 1 1 45 1 1v4h-2v2h2v4h6v-6h2v2h14v-2h4v4h2v-2h4v-2h8v2h2v-2h2v2h6v-4h2v2h6v2h-2v2h6v-2h2v4h6v-6h2v2h14v-2h4v4h2v-2h4v-2h8v2h2v-2h2v2h4v4h-2v4h-2v2h-2v4h-2v4h-2v6h4v2h6v-2h4v2h14v2h6v4h12l2 3v2l-1 1-1 3-3 3-1 2h-2v2h-6v2h-6v-2h-4v2h-2v2h-2v4h-2v2h-8v-2h-6v2h-6v-2h-4v2h-2v6h-10v2h-2v-2h-22v2h-8v-2h-4v-2h-12v2h-16v2h-2v-2h-19l-1-2-1-12-1-4-1-9Z" fill="#786ff7"/><path d="M760 280h4v2l20-1 1-1h3v2l6-1 1-1h3v2l14-1 1-1h5v2l6-1 1-1h3v2l20-1 1-1h3v2l6-1 1-1h3v2l14-1 1-1h5v2l6-1 1-1h3v2h20v-2h4v2h3l1 11 1-10h1l1 20v15h-1l-1 13h-1l-1-9-1-1h-8l-1 1h-2l-1-1h-12l-1 1h-2l-1-1h-24l-1 1h-10l-1-1h-8l-1 1h-2l-1-1h-12l-1 1h-2l-1-1h-24l-1 1h-10l-1-1h-8l-1 1h-2l-1-1-13-1-3-3-9-1-3-3-9-1-1-1-5-1-3-3h-2l-1 1h-4l-3-3-3-1-1-1-7-1-3-3v-4l1-1v-2l-1-1v-3h13l1 1 8 1v-2h4v2h4v-4h4v-2h8v2h6v-2l3-2Z" fill="#cf6198"/><path d="M662 241h15l3 1 2 2 2 1 1 4 1 2v8l-1 3h-4l-4 4-1 3-2 2v5l-2 3v4l-1 1-1 6v4l-1 3-1 6v15l-2 3v4l-2 2v2l-2 2-1 3-4 4h-2l-2 2h-6l-4 1h-12l-1-1h-11l-3 1h-8l-5 2h-4l-7 1-1 1h-2l-7 1-1 1h-2l-7 1-1 1h-2l-4 1-3 1h-3l-4 1-3 1h-3l-4 1-3 1h-3l-4 1-3 1h-3l-4 1-3 1h-3l-4 1-3 1-7 1-3 1-7 1-3 1-7 1-3 1-7 1-3 1-5 1-3 1-5 1-3 1-3 1-3 1-3 1-3 1-12 1h-3l-4-2-1-1-3-1-1-1-1-3-1-1-2-5v-3l-2-7v-3l-2-9v-5l-1-4-1-2-1-5-1-1-1-7-5-5-4-1v3h-1v-10l3-5 2-2 5-3 5-2 11-3 16-3 14-3 16-3 14-3 16-3 14-3 15-3 14-3 16-3 14-3 16-3 14-3 15-3h4v-2l14-3 16-3Zm-32 15v2h-5l-3 2v-2h-2v2h-5l-3 2v-2h-2v2h-5l-3 2v-2h-2v2h-5l-3 2v-2h-2v2h-5l-3 2v-2h-2v2h-5l-3 2v-2h-2v2h-5l-3 2v-2h-2v2h-5l-3 2v-2h-2v2h-6v2h-14v2h-8v2h-10v2h-10v2h-5l-3 2v-2h-2v2h-5l-3 2v-2h-2v2h-5l-3 2v-2h-2v2h-5l-3 2v-2h-2v2h-8v2h-8v2h-4v2h-4v2h-2v2h-2v2h-2v2h-2v4h-2l-1 4-1 1-1 5-1 1v22l1 1 1 7 1 2 1 4 1 1 1 4h2v2l4 1 1 1h12l2-2h4l2-1 6-1 2-1 5-1h3l2-1 6-1 2-1 8-1 2-1 8-1 2-1 8-1 4-2h6l4-2h6l4-2h6l4-2h6l4-2h6l4-2h6l4-2h6l4-2h6l4-2h6l2-1 5-1h7l2-1 7-1h19l2-2h2l5-5v-2l2-2v-2l1-1 1-4v-9l1-1 1-4v-23l-1-1-1-5-1-1-1-3-5-5-3-1-3-3h-8l-3 2v-2Z" fill="#efecf2"/><path d="M920 341h1l1 7 1-6h1v152h-1l-1-110h-1l-1-4h-6v2h-8v-2h-4v2h-6v-2l-3 1-1 1h-6v-2h-2v2h-6v-2h-2v2h-2l-1-1h-4l-1 1h-4v-2l-13 1-1 1h-8v-2l-3 1-1 1h-6v-2l-3 1-1 1h-6v-2h-2v2h-6v-2h-2v2h-2l-1-1h-4l-1 1h-4v-2l-13 1-1 1h-8v-2l-3 1-1 1-5 1-3 3-7 1-1 1h-2v2h-8v4h-12v2h-4v2l-4 4h-12v-4h-2v-2h-2l-1-4-3-2v-7l1-1 1-4h2v-2h2v2h4v-5l1-1h3v-4h2v2l4-1 1-1 1-4 4-1 2-3 4-1 2-3h14v-3l1-1h9v-2l3-2 13-1 1-1h3v2l60-1 1-1h3v2h60v-2h4v2h6Z" fill="#c069a8"/><path d="M423 468h1l1 112v45l-1 74-2 12-2 8-3 7-4 8-3 4-2 3-3 4-6 6-3 2-4 3-5 3-6 3-5 2-4 1-2 1-5 1-3 1-7 1-4 1-14 1h-8l-10-1-7-2-7-3-5-3-3-2-4-3-7-7-2-3-2-2-3-6-1-1-4-10-2-10v-17l2-9 1-3h1v4l-1 4v15l1 4 1-3 4-4 10 1 4 2 4 1 2 2 12 6v2h2l6 1 4 2 8 2h12l1-1h5l10-2 2-1 4-1 4-2 4-3 4-1 2-2h2v-2h2l6-6 2-3 3-2 1-1v-2l6-6 2-4v-2l9-9h5l1 1 1-8 1-44Z" fill="#d7cff8"/><path d="M684 247h1l2 3 1 3 1 9v375l-1 15-2 10-3 9-2 3-2 5-3 5-2 2-2 3-10 10-3 2-4 3-8 4-11 4-5 1-2 1-10 2-10 1h-21l-6-1-6-2-7-3-5-3-3-2-4-3-8-8-3-5-2-3-4-8-3-10-1-6v-13l2-11 1-2h1v4l-2 12v15h2v-3l1-4h2l2-2 10 1 4 1 2 2 6 3 2 2 4 1v2h2l4 1 4 2 5 1 1 1 8 2h14l12-2 1-1 5-1 10-5 4-1 2-2 6-3 4-4h2v-2l10-10v-2l3-2 1-1h3v-4l6-6h2l2 2 2-3 1-363-1-13-1-4-1-2Z" fill="#d4caf3"/><path d="M105 740h9v2h2v-2h2v2h4v-2h6v2h4v-2h46v2h2v-2h2v2h4v-2h6v2h4v-2h4v6h2v2h4v-2h2v-2h4v2h10v6h8v2h2v-2h2v4h2v2h8v6h8v2h-8v4h-2v4h-8v6h-2v2h-4v-2h-4v2h-4v6h-2v2h-6v-2h-4v2h-4v-2h-4v2h-2v6h-2v-2h-4v2h-16v-2h-4v2h-2v2h-4v-2h-6v2h-4v-2h-6v2h-6v-2h-12v-2h-4v2h-14l1 3v3l-1 1h-1l-2-5-1-5-1-2-1-7-1-2-1-10-1-3v-14l-2-6v-4l1-4Z" fill="#7078f8"/><path d="M653 579h2l2 5 1 1v4l2 2v6l2 2v8l-1 1-1 11-1 1-1 4-2 5-2 2v3l-2 5-4 4v2l-2 2-3 6-3 2-1 2-3 1h-1l-2 2-4 2-3 1-1 1-6 1-2 1h-22l-2-1-4-1-6-6h-4l-1-1v-2l-6-6-2-1-1-4-1-1-1-3-1-1-1-5-1-1-1-5-3-3-3-1-3-2h-1l-3 3h-1v-7l10-10 3-2 3-2 5-1 1-1 3-1 1-1 5-2 4-1 2-1 7-2 28-6 15-3 8-2 4-2h5Z" fill="#efe7f7"/><path d="M608 353h24l3 1 5 1 1 1 9 2 3 2 6 3 2 2 3 1 2 2v4h2v4h2v8h-2v8h-2v2l-1 1-1 3h-2l-1 8-1 16-1 145-2 6-2 3-5 5-6 3-13 3-15 3-23 5-7 2-2 1-4 1-5 2-1 1-3 1-1 1h-3v-1l3-2 4-2 11-4 10-3 18-4 16-3 13-3 5-2 3-2 2-3h2v-2l1-1 1-3 1-151v-39l-2-5-2-2-2-1h-9l-12 2-4 1h-6v2l-10 2-12 1-2 1-8 1-2 1-8 1-2 1-8 1-2 1-16 3-3 1-7 1-3 1-7 1-3 1-8 1-2 1-8 1-2 1-8 1-2 1-8 1-10 2-2 1-8 1-2 1-6 1-3 1-7 1-3 1-10 2-4 1-4 2-3 3-2 5-1 44h-1l-1-19-1-1-1-8-1 1h-1l-1-3-1-1v-4h-2v-8h-2v-4h2v-8l11-11 4-2h2v-2l18-9 3-1 1-1 9-3 6-1 2-1 6-1 2-1 105-21 3-1 7-1 3-1Z" fill="#d7cff6"/><path d="M654 373h1l2 3 1 3v39l-1 24h-1l-1-4h-1l-1-5v-4l-1 1h-2v2h-2v2h-4v2h-2v2h-6v2h-4v2h-4v2h-2v2h-6v2h-8v2h-2v2h-2v-2h-2v2h-8v2h-12v2h-8v2h-8v2h-10v2h-12v2h-12v2h-8v2h-8v2h-20v2h-30v-2h-4v2h-2v-2h-8v-2h-6v-2h-6l-1-1-5-1v2h-4l-1-1h-4l-1 3h-1l-1 8h-1l-1-11v-42l2-5 1-1h1v2l-1 2-1 4v14l1 1v2h4l2 1 4 1 3 3 2 1v-2h3l1 1 3 1 1 1 8 1v2h6v2h9l1 1 6 1v-2l12-1 1-1 13-1 1-1 9-1 1-1 14-3 2-1 7-2 5-1 2-1h5v-2h1l1 1h2l1-1h3v-2h2v-2h2v2h3l4-4 5-1 1-1 5-1 10-4 3-3 3-1 1-1 3-1 1-1 3-1 1-1 3-1 1-1h3v-2h2v-2l4-1 1-1 5-1 1-2 3-1h1l2-2 3-1 1-1h2l2-3 3-2 3-2 6-3h2v-3h2l-1-6-2-6Z" fill="#9858a0"/><path d="M423 708h1l1 4 2 1 1 9v7l1 2v15l-1 6-1 1-1 5-3 2-1 4-3 2-1 4-1 1h-2v2l-2 1-1 3-2 2-1 2-3 2-3 3-3 1-7 7-2 1h-2v2l-1 1-3 1-1 1-3 1-1 1-7 1-4 2h-2l-1 1-6 1h-1l-1 1h-27l-2-1-8-1-6-3-5-1-3-3-3-1-3-2-2-1-1-2-4-1-2-2-1-3v-2h-2v-2h-2v-2h-2v-2h-2l-2-2-2-4-2-2-1-2-1-4-1-1-2-5-2-3-1-6v-5l2-10 1-7h1l2 3v2h2l2 5 2 3 2 4 3 3 2 3 6 6 3 2 3 2 5 3 7 3 7 2 10 1h8l14-1 4-1 7-1 3-1 5-1 2-1 4-1 7-3 6-3 4-3 3-2 4-3 5-5 2-3 3-4 3-5 4-8 2-5 1-4 2-3Z" fill="#6866d6"/><path d="M389 631h2l-1 3h-2v2l-2 1 4 4 1 3 1 1 1 3 1 1v2l-1 1v2l1 1v12l-1 1-1 3-1 1-1 7-2 2-3 7-3 3v2l-1 1-1 3-2 3-2 3-3 3h-2l-4 4-3 1-1 1-5 1-1 1-7 1-1 1h-15v-2h-9l-6-6h-2l-2-2-1-3-2-2v-2l-2-2-4-1-1-6-1-1-1-7-3-3-1-3-1-1-8-1-1 1h-2v2l-1 1h-2v2h-1v-3h2v-2l14-14 2-1 1-2 2-1 4-1 1-1 4-1 1-1 4-1h2v-2l4-1 2-1 5-1 3-1 5-1 14-1 1-1 6-1 3-1 7-1 3-1 6-1 1-1h4v-2h3v-2h2Z" fill="#efe8f7"/><path d="M458 702h4v4h12v-2h4v-2h8v2h12v6h2v-2h2v2h6v6h4v2h4v4h4l2 3 1 4 2 3 5 5v7h2v6h-2v2h-2v6h-2v2h-4v6h-6v4h2v2h-2v2h-8v6h2v2h-4v-2h-16v2h-6v-2h-4v2h-4v-2h-8v-8h-4v2h-4v-2h-2v-6h-6v-2h-2v-4h-6v-4h-2l-1-7-1-2v-4l-2-1v2h-2l-2-3v-5h2v-4h2v-4h4v-8h2v-4h4v-2h-2v-4h4v2h4v-2h2v-6h2Z" fill="#7171f2"/><path d="M269 751h1l1 5 2 3 2 5 1 1 1 4 2 3 2 3 2 3 2 1v2h2v2h2v2h2l2 5 1 1 4 1 1 1v2h2l3 2 3 1 3 3 5 1 6 3 8 1 2 1h27l1-1h2l5-1 1-1h2l4-2 7-1 1-1 3-1 1-1 3-1 1-2 4-2 7-7 3-1 4-4h2v-2l2-2 1-3 1-1h2v-2l2-1 1-4 3-2 1-4 2-2h2v-5l1-1h1l1 3-1 4-1 3v9l-1 3-2 3-1 2-1 7-1 1-1 5-1 1v4l-4 4h-2v2l-1 3-1 1-1 3-3 1-1 3h-2v4l-3 1-2 2-1 3-2 2h-4v2l-2 2-3 1-1 1h-4v2h-4v2h-4v2l-5 1-2 2-11-1v2l-25 1-2-2-7-1v-2h-4l-1-1-3-1v-2h-6l-1-3-3-1v-2h-4l-2-2-1-3-3-3v-2h-2l-8-8v-4h-2l-1-5-2-3v-3h-2l-1-2-1-6-1-2-1-4-2-4-1-6v-5l-1-6Z" fill="#6070e0"/><path d="M642 370h9l3 2 3 9v4h-1l-1 1-4-1v2h-2l-3 2-2 2-5 1-2 1-4 1-2 1-4 1-1 1-6 1-3 1-4 1-2 1-4 1-2 1-8 2h-4l-3 1-4 1-6 1-3 1-5 1h-3l-2 1-7 1-4 1-8 1-4 1-11 1-2 1-10 1-10 2h-4l-2 1-12 1-7 1-24 1h-7l-13-1-7-2-1-1h-5v-3l2-2 1-2 2-1 8-2 6-1 3-1 7-1 3-1 6-1 2-1 8-1 2-1 10-2 8-1 2-1 8-1 2-1 8-1 2-1 8-1 3-1 7-1 3-1 7-1 3-1 16-3 2-1 8-1 2-1 8-1 2-1 8-1 2-1 12-1 5-1h5v-2l10-2Z" fill="#81497a"/><path d="M624 496h2l1 2h5v-2h25v41h-3l-1 1-21 1-1 1h-2l-1-1-25-1-1-1h-4l-1 1h-7v-2h4v-2h-5l-1-1h-6l-1 1h-23v-2l6-1 2-3-4 1-1 1h-4l-1-1-6-1v2h-2v-2l-3 2h-10l-1-1h-8l-1 1h-2l-1-1-4-1v-2h4v-2h-10v-2h6v-4l-4 1-1 1h-10l-1-1-4-1v3l-1 1h-2l-1-1-8-1v-2l3-2h2l1 1 4 1v-4h-2v-2h2v-2l21-1 2-1h10l9-2 15-1 2-1h12l4-2 17-1 1-1h21v-2h14Z" fill="#9f68c8"/><path d="M534 698h2v8h2l1 4 1 1 1 3 2 1 2 5 2 1 1 2v3h3l2 3v2h2v2h2v2h2l1 2 4 1 2 2v2h3l6 3 1 1v2h4v2h3l2 1 8 1 2 1h29l1-1 6-1 3-1 3-1 2-1 5-1 3-2 2-1h3v-2l4-1 1-2 5-2 1-2 3-2 1-2 5-2 2-2 2-4 3-3 1-2h2v-3l2-3 2-2h2v-5l1-1h3l-1 4v4l-1 4-1 1v6l-2 2-1 7-1 1-1 3h-2v6l-1 1-1 3-2 3-2 3-5 5-1 3-12 12h-2v2l-3 1-1 1-3 1-3 3-3 1-1 1-5 1-1 1h-6v2l-7 1-2 1h-3v-2h-4v2h-10v-2h-12v-2h-8l-1-1-3-1v-2h-4v-2h-4v-2h-4l-1-3-3-1-2-2v-4h-2l-3-3-3-2-1-2-3-2-1-4-1-1-1-3-1-1-1-3-1-1-1-3-2-2v-4l-1-2-1-4-1-2-1-4-1-2-1-5v-9l-1-2Z" fill="#6868d8"/><path d="M652 428h1l1 1v4l1 1h1l1 8v37h-1l-1-10v-10h-6l-2 1-4 1-2 1-6 1-2 1-8 1-2 2h-8l-4 2h-6l-2 1-12 1-2 2-13-1v2h-2v-2h-2v2l-12 1h-1l-1 1-11 1-2 2h-16l-1 1h-4l-4 1h-7l-2 1-17 1h-37l-16-3-2-1-9-1-1-1-1 2h-1v-2h-2l1-11h1l2-2h4l1 1 4 1v-2h5l1 1 6 1v2h6v2h8v2h2v-2h4v2h30v-2h20v-2h8v-2h8v-2h12v-2h12v-2h10v-2h8v-2h8v-2h12v-2h8v-2h2v2h2v-2h2v-2h8v-2h6v-2h2v-2h4v-2h4v-2h6v-2h2v-2h4v-2h2v-2h2Z" fill="#a060af"/><path d="M540 627h1v7l-2 5-2 11v13l2 10 2 6v2h-1l-1-1v-3h-2l-1-6h-1l-1-19v10l-1 10 1 1v16l1 16 1 3v9l1 5-1 5-1 1-1 8h-2v-2h-2v3h-1l-6-6-1-2-1-12v-3l2-3v-21l-1-2-1-5-1-1-2-5-2-3-1-1 1-3 1-2h-5v-2l1-1 1-3h-6v-4h-2v2h-6v-4h-10l-1-1h-4l-1 1h-2v-6l-7 1-1 1h-8v-2h-2v2h-2l-1-1h-6l-1 1-3 1-1 1-3 1-1 1h-2v-2h-2v4l-2 2h-6v2h2v2l-1 1-1 3h-4v2h2v6h-2v2h2v12l-1 1 1 4 1 2v4l1 1 1 3 1 1 2 11 1 3-1 12h-2v4h-4l-1-4-1-1v-5h-2l-1-1v-12h-2l-1-1h-1l-1 2h-1v-3l1-5h2v-6l1-63h1l1-1h1l1 5 3 1v2h2v-2h16v2h8v-2h16v2h4v-2l15-1 3-3h16v2h4v-2h10v-2l2-2 3-1 1-1 4-1 1-1h2v-2Z" fill="#7868e7"/><path d="M423 468h1l1 112v45l-1 74-2 12-2 8-3 7-4 8-3 4-2 3-3 4-6 6-3 2-4 3-5 3-6 3-5 2-4 1-2 1-5 1-3 1-7 1-4 1-14 1h-8l-10-1-7-2-7-3-5-3-3-2-4-3-7-7-2-3-2-2-2-4v-2l3 1 1 4 1 1v-3l-1-2v-2l5-5h6l6 3 4 1 2 1 4 1 2 1 4 1 2 1h4l4 1 3 1h17l2-1 10-1 4-1 3-1 3-1h4v-2l4-1 10-5 1-1 5-1 4-2 1-1h10l3 2-1 3v2h1l5-10 2-5 3-13 1-8Z" fill="#cebff7"/><path d="M390 361h1l1 3 1 5v98h-1l-2-3-1-3-4-1-1 2h2v2h-2v6h-6v4h-4v-2h-2v-4h-2v-4h-2v-4h-2v-8h-4v-2h-8v-2h2v-2h-6v-8h-2v-26h4v-2l1-1 1-3h4v-4l7-1 1-1h2v-2h2v-2l1-1h2v-2l1-3 1-1 1-3 2-3 3-6 2-2 2-4h2v-2l1-3 1-3Z" fill="#af60a8"/><path d="M666 674h4l1 1 3 1v3l-1 2h3v-2l3-5h1v3l-2 4-3 4-3 4-10 10-3 2-4 3-8 4-11 4-5 1-2 1-10 2-10 1h-21l-6-1-6-2-7-3-5-3-3-2-4-3-8-8-3-5-2-3-1-2v-2h2l2 5 1 1v2h3l-1-2v-3l4-4h3l2 1h6l6 3 4 1 3 1 3 1h4l4 2h9l1 1h12l1-1h6l3-1h4l4-2 6-1 2-1 4-1 6-3 3-1h3v-2l6-2 2-1h5Z" fill="#d0c0f7"/><path d="M607 361h17l9 2 4 2 3 1v1l-1 1 14 1v2h-11l-12 2-4 1h-6v2l-10 2-12 1-2 1-8 1-2 1-8 1-2 1-8 1-2 1-16 3-3 1-7 1-3 1-7 1-3 1-8 1-2 1-8 1-2 1-8 1-2 1-8 1-10 2-2 1-8 1-2 1-6 1-3 1-7 1-3 1-10 2-4 1h-2v-2h4v-2l5-1-1-1v-1l1-1h2v-2l4-4 14-7 4-1 2-1 4-1 2-1h4l2-1 14-3h2l2-1 7-1 3-1 7-1 3-1 7-1 3-1 7-1 3-1 7-1 3-1 7-1 3-1 7-1 3-1 7-1 3-1 7-1 3-1 7-1 3-1 7-1Z" fill="#cfbff7"/><path d="M444 612h4v2h18v-2h3l1 1 8 1v-2h6v2h6v2h-2v2h16v-2h4v2h8v4h16l1 4 1 1v3h2v2l-4 1-1 1-3 1-2 3h-10v2h-4v-2l-16 1-3 3h-15v2h-4v-2h-16v2h-8v-2h-16v2h-2v-2h-3l-1-1h-2l-1 59-1 6h-1v-7l1-74 1-11h19Z" fill="#8769e8"/><path d="M691 339h1l1 6 1 3 1 1v6l2 4v2l1 2v3h2l3 3-1 7h2v2h2l2 3 1 3v2l-1 4h2l2 2v4h2v2h2v4h6v2h2v2h2v6h4v2h2v2h-2v6h-2v4h-2v6h-2v2h-2v4h-2v4h-2v4h-4v2h-4v-2h-6v2h-6v2h4v2h-4v2h-4l-1 18-1 8h-1l-1-58v-76Z" fill="#b060a8"/><path d="M399 752h1v3l-1 1-2 5-3 5-2 3-2 2-2 3-7 7-4 2-2 2-10 5-1 1-3 1-10 2h-12l-9-1-5-2-5-2-3-2-4-2v-2h-2l-8-8-2-3-1-1-1-3-2-3-2-3v-1h2l1 1 3 1 1 1 5 1 5 2 7 2 10 1h8l14-1 4-1 7-1 3-1 5-1 2-1 4-1 7-3 4-2 4-1 5-3Z" fill="#5858c0"/><path d="M663 699h2l-1 3-2 4-1 1-1 4-2 2-2 3-3 3-2 3-6 6-4 2-2 2-10 5-5 1-3 1-5 1h-15l-7-1-1-1-4-1-10-5-6-6-3-2-2-3-3-4-2-4-2-3v-1h4l1 1 5 1 11 4 6 1h21l10-1 10-2 2-1 5-1 6-2 7-3 6-3 1-1 4-1Z" fill="#5959c1"/><path d="M673 752h2v1l-4 4-1 3-12 12h-2v2l-3 1-1 1-3 1-3 3-3 1-1 1-5 1-1 1h-6v2l-7 1-2 1h-3v-2h-4v2h-10v-2h-12v-2h-8l-1-1-3-1v-2h-4v-2h-4v-2h-4l-1-3-3-1-2-2v-4h-2l-3-3-3-2-1-2-3-2v-3h1l3 3 4 1 1 2 6 3 7 1h1l1 1 7 1 1 1 8 1v2h28v2h4v-2l11-1 1-1h6v-2h6v-2h8v-2l5-3 2-1 5-1 2-3 4-1Z" fill="#6c70e0"/><path d="M408 738h1v2l-2 2-2 3-6 6-3 2-4 3-5 3-6 3-5 2-4 1-2 1-5 1-3 1-7 1-4 1-14 1h-8l-10-1-7-2-7-3-5-3-3-2-4-3-7-7-1-3h2l2 3 4 4 2 1v2h2l1 1 3 1v2l3-1-2-1v-7l21-1 6 1h22l4-1 8-1 2-1h4l4-2h6l2-2h1l1 2h2l1-1h2l3 3v2l-1 2-2 1 3 1v-2l5-3 1-1h2v-2h2v-2h2v-2h2v-2Z" fill="#bfb7f7"/><path d="M679 674h1v3l-2 4-3 4-3 4-10 10-3 2-4 3-8 4-11 4-5 1-2 1-10 2-10 1h-21l-6-1-6-2-7-3-5-3-3-2-4-3-8-8-3-5-2-3-1-2v-2h2l2 5 3 4 3 4 2 2 2 1v2h2v2h2l1 1 3 1v2h4v-2h-2v-2l1-3 18-1h3l12 1h8l12-1h4l2-1 4-1h6l2-2 13 1v5l-2 1 3 1v-2l3-1 4-3 3-2 8-8 2-4 2-2 2-4Z" fill="#bfb6f6"/><path d="M601 371h11l1 1 13 1v1h-6v2l-10 2-12 1-2 1-8 1-2 1-8 1-2 1-8 1-2 1-16 3-3 1-7 1-3 1-7 1-3 1-8 1-2 1-8 1-2 1-8 1-2 1-8 1-10 2-2 1-8 1-2 1-6 1-3 1-7 1h-3v-2l7-1 2-1h7v-2l5-1-1-1v-1l1-1h4l2-2h4l1-1 6-1h3l1-1 6-1h3l4-1 3-1h3l4-1 3-1h5l1-1 4-1h3l1-1 4-1h5l1-1 4-1h5l1-1 4-1h5l2-2h8l1-1 6-1h3l1-1 6-1h3l2-2h8Z" fill="#c2b7f4"/><path d="M612 600h6v4h2v-2h2v4h2v-2h2v2l3-2h5v3l-1 1h-5v2h9l3 3v4l-1 1-1 6h-10v2h-2v2h-2v-2l-3 2-2 2h-17v-4h-2v-4l3-2 1-2h-3l-1-1-4-1v-2l3-2 2-2 5-1 1-1h7v-6h-2Z" fill="#f0f0f0"/><path d="M305 100h414l20 1 15 1 17 2 12 2 9 2 13 4v1l-3 1h-2l-3-2h-3l-3-1-1-1h-5l-3-1-1-1h-7l-5-1-1-1h-9l-6-1-3-1h-18l-19-1-12-1H323l-12 1-19 1h-18l-3 1-6 1h-9l-1 1-5 1h-7l-1 1-3 1h-5l-1 1-4 1h-2l-3 2h-2l-3-1v-1l13-4 9-2 12-2 17-2 15-1Z" fill="#e888a0"/><path d="M429 476h1l1 4 5 5v3h5l1 1 4 1v2h-6l2 3 3 1 1 1 7 1 1 1v2l-1 1h-3v6l4-1 1-1h2l1 1v2l-1 1-3 1-1 1-5 1-1-2-9-1v8h4v-2h2v2h4v2h-11l-3-2v3l-1 1h-2l-3-3h-3v-42h3Z" fill="#9f60bf"/><path d="M690 554h1v57h1l1 9 1 2v2h6v2h4v4h4v4l-1 1 1 1v2l-3 1-1 7v4l-1 1-1 5-1 1v5l-2 10-1 7-1 4-1 1h-1l1-14h-2v-4h2v-8h-2l-2-3v-16h-3v14l-1 4h-1v-5l1-15 1-63Z" fill="#6969d9"/><path d="M653 371h2l2 1 2 3 1 26v21l-1 145-2 6-2 3-5 5-6 3-13 3-15 3-23 5-7 2-2 1-4 1-5 2-1 1-3 1-1 1h-3v-1l3-2 4-2 11-4 10-3 18-4 16-3 13-3 5-2 3-2 2-3h2v-2l1-1 1-3 1-151v-39l-2-5-2-2Z" fill="#c9bdf2"/><path d="M380 763h4v1l-3 2-4 3-2 2-4 2-2 2-4 2-8 3-4 1h-21l-5-2-5-2-3-2-4-2-1-1v-1h31l10-1v-2l7-1 10-1 2-1 5-1Z" fill="#5050b0"/><path d="M641 711h5v1l-4 3-3 3-3 1-3 3-3 1-1 1-4 1-2 1-5 1h-22l-5-2-8-4-3-2-2-1v-1h7l2 1h16l6-2 10-1 4-1 11-1 5-1Z" fill="#5151b1"/><path d="M100 489h1l1 220 1 10 1 3 1 12v7l-1 4v4l2 6v14l1 3 1 10 1 2 1 7 1 2 1 5 2 7 1 2v4h-1l-2-5-4-14-2-9-2-11-2-16-2-33ZM923 494h1v229l-2 33-2 16-2 11-2 9-4 14-2 5h-1v-4l1-2 2-7 1-5 1-2 1-7 1-3 1-9 1-3v-16l1-1 1-3v-4l-1-4v-7l1-12 1-4 1-9Z" fill="#928fe2"/><path d="M653 371h2l2 1 2 3 1 26v21l-1 27-1 116h-1V379l-2-5-2-2Z" fill="#bda3d1"/><path d="M285 101h38v1l-12 1-19 1h-18l-3 1-6 1h-9l-1 1-5 1h-7l-1 1-3 1h-5l-1 1-4 1h-2l-3 2h-2l-3-1v-1l13-4 9-2 12-2 17-2Z" fill="#e87591"/><path d="M701 101h38l15 1 17 2 12 2 9 2 13 4v1l-3 1h-2l-3-2h-3l-3-1-1-1h-5l-3-1-1-1h-7l-5-1-1-1h-9l-6-1-3-1h-18l-19-1-12-1Z" fill="#e87592"/><path d="M895 185h1l3 5 2 4 1 1 1 3 1 1 1 3 1 1 5 13 3 9 2 7 2 9v6h-1l-1-3-2-2-1-8-1-1v-6l-2-1v-5l-2-2v-4l-2-2v-3l-2-1v-3l-2-2v-3l-2-1v-4h-2v-4h-2l1-3h-2l-1-1Z" fill="#e77491"/><path d="M272 696h1v22l2 10 1 2v3h-1l-2-4-2-9v11l-2 1-1 3-1 1h-3l-1-11 4-8 1-3 2-2 1-13Z" fill="#7c73e8"/><path d="M388 629h1v4h-2v2h-3v2l-4 1-1 1-6 1-3 1-7 1-3 1-6 1-1 1-14 1-5 1-3 1h-5v-1l11-3 29-6 13-3 4-2 4-3Z" fill="#cfc6f8"/><path d="M390 413h1l1 45v5l-1 1h-1l-1-3-4-1-1-1v-7h5l-1-7v-3Z" fill="#9d5dab"/><path d="M429 508h1v2h8v8h4v-2h2v2h4v2h-11l-3-2v3l-1 1h-2l-3-3v-10Z" fill="#a068c8"/><path d="M918 247h1l1 5 2 17v14l-1 21h-1l-1-11v-14h-1l-1-15v-3l1-3ZM105 247h1v11l1 11-1 10h-1v12l-1 13h-1l-1-21v-14l2-17Z" fill="#e7718f"/><path d="M322 648h4v1l-2 1h-4v2l-2 1-4 1-1 1-4 1-1 1-4 1h-2v2l-4 3-12 12-1 2h-3v-2l3-4 10-10 5-3 3-2 8-4Z" fill="#dad2f8"/><path d="M120 199h1v4l-1 1v4l-2 2v4h-2v5l-2 2v5l-2 1v6l-1 1-1 8-2 2-1 3h-1v-6l2-9 4-13 2-6 4-10 1-1Z" fill="#e77592"/><path d="M634 620h2v2h2v2h-10v2h-2v2h-2v-2l-3 2-2 2h-15v-2h10v-2h2v-2h6v-2h12Z" fill="#f8f8f8"/><path d="M167 140h2l-1 3-3 2h-2v2h-2v2h-2v2l-1 1h-2v2h-2v2h-2v2l-1 1h-2v2h-2v2h-2v2l-3 3v2l-2 1-1 2h-2v-2l2-2 2-3 2-2 2-3 17-17 3-2Z" fill="#e87693"/><path d="M356 637h2l4 1v1l-1 1-24 5h-3v-2l6-1v-1l2-2Z" fill="#7d73ea"/><path d="M653 371h2l2 1 2 3 1 26v21h-1l-1-14-1-29-2-5-2-2Z" fill="#cbcacb"/><path d="M851 137h2l2 2 3 2 2 2 3 2 17 17v2l-3-1v-2h-2v-2h-2l-1-1v-2h-2v-2h-2v-2h-2l-1-1v-2h-2v-2h-2v-2h-2l-4-3h-1l-1-2-2-1Z" fill="#e87692"/><path d="M322 648h4v1l-2 1h-4v2l-2 1-4 1-1 1-4 1-1 1-4 1h-2v2l-1 1h-4v-1l4-3 10-5Z" fill="#cdc4f8"/><path d="M469 404h8v1l-6 1-1 1-16 3-3 1h-9v-1l6-1 3-1 7-1 3-1 6-1Z" fill="#9c5da7"/><path d="M611 371h1l1 1 13 1v1h-6v2l-10 2h-4v-1l5-2-2-1v-2Z" fill="#b69adc"/><path d="M805 113h3l10 4 4 2 3 1 1 1 3 1 3 2v1h-4l-1-1-3-1-1-1-3-1-1-1-4-1v-2l-3 1-2-1v-2h-5ZM216 113h3v2h-5v2l-3 1-2-1v2l-4 1-1 1-3 1-1 1-3 1-1 1h-4v-1l3-2 3-1 1-1 5-2 4-2Z" fill="#e87894"/><path d="M152 869l4 1v2h2l4 4 1 2h3l1 2v2h2l1 3h-2l-3-3-3-2-7-7-3-2Zm15 10h1v1h-1Zm2 2h1v1h-1Z" fill="#7290ef"/><path d="M464 403h13v1l-8 1-2 1-6 1-3 1-7 1h-3v-2l7-1 2-1h7Z" fill="#bdaee9"/><path d="M525 387l3 1v2l9 1v1l-7 1-3 1h-5v-1l-1-1v-2l2-2Z" fill="#bdb0ee"/><path d="M408 738h1v2l-2 2-2 3-6 6-3 2-4 3h-1v-3l5-3 1-1h2v-2h2v-2h2v-2h2v-2Z" fill="#baaef0"/><path d="M425 697h1v16h-1l-1-1h-1l-1 2h-1v-3l1-5h2v-6Z" fill="#7275e5"/><path d="M381 761h3v1l-1 1-3 1-1 1-5 1-2 1h-7v-1l5-1 2-1 4-1Z" fill="#6464d0"/><path d="M886 674h2v2h2v4h-8v-2h4ZM822 674h2v2h2v4h-8v-2h4ZM182 674h2v2h2v4h-8v-2h4ZM118 674h2v2h2v4h-8v-2h4Z" fill="#8068f0"/><path d="M708 440h6v4h-2v2h-2v-2h-2Z" fill="#b068b8"/><path d="M839 129h2l5 3 4 3 1 1v1h-3l-3-2v-2h-3l-3-2ZM183 129h2v2l-3 2h-3v2l-3 2h-3v-1l2-2 5-3Z" fill="#e87692"/><path d="M540 627h1v4l-1 1-1 4h-1l-1-1-3-1v-2l3-2h2v-2Z" fill="#6865d5"/><path d="M436 409h12v1l-10 2-4 1h-2v-2h4Z" fill="#c3b1e4"/><path d="M136 173h1l1 3h-2v2l-1 1h-2v2l-1 1v2l-1 1h-2v-2l3-5 3-4Z" fill="#e87693"/><path d="M868 666h6v4h-6ZM804 666h6v4h-6ZM164 666h6v4h-6Z" fill="#7870f8"/><path d="M388 629h1v4h-2v2l-5 1h-3v-1l4-2 4-3Z" fill="#cdc4f8"/><path d="M356 442h6v4h-6Z" fill="#b068b8"/><path d="M115 810h3v4l2 2v2h-3l-2-5Z" fill="#767ef2"/><path d="M906 810h3v3l-2 5h-3v-2l2-2Z" fill="#777ef2"/><path d="M287 669h1v2l-1 3-2 3h-3v-2l3-4Z" fill="#cec5f8"/><path d="M887 173h1l2 2 3 5v1h-2v-2h-2l-3-3Zm3 8h1v1h-1Z" fill="#e87491"/><path d="M880 164h1l3 3 2 3 1 1v2h-2l-1-1v-2h-2v-1l-2-1Z" fill="#e87692"/><path d="M768 105h8l1 1v2h-3l-5-1-1-1Z" fill="#e8708e"/><path d="M653 371h2l2 1 2 3v4h-2l-2-5-2-2Z" fill="#cab8e0"/></svg>