<svg xmlns="http://www.w3.org/2000/svg" width="1024" height="1024"><path d="M333 98h359l45 1 14 1 10 1 14 2 14 3 14 4 6 2 7 3 7 3 8 4 3 2 4 2 4 3 5 3 4 3 4 3 2 2 3 2 6 6 3 2 5 5 2 3 5 5 2 3 2 2 2 3 3 4 3 5 3 4 2 4 2 3 7 14 4 11 2 5 4 15 2 9 2 13 1 8 1 12 1 18v428l-1 20-1 11-2 15-2 11-3 12-3 10-2 5-4 10-7 14-2 3-3 5-3 4-3 5-3 3-2 3-2 2-2 3-18 18-3 2-3 3-3 2-4 3-3 2-3 2-5 3-5 3-16 8-11 4-9 3-12 3-17 3-18 2-17 1H292l-16-1-11-1-14-2-14-3-11-3-12-4-7-3-4-2-5-2-3-2-6-3-3-2-5-3-4-3-3-2-4-3-2-2-3-2-4-4-3-2-9-9-2-3-4-4-2-3-2-2-2-3-3-4-3-5-3-4-3-6-2-3-4-8-2-5-4-10-3-9-3-12-3-16-2-18-1-14-1-40V325l1-38 1-15 2-18 3-16 3-12 5-15 2-4 2-5 7-14 2-3 3-5 3-4 2-3 3-4 2-2 2-3 3-3 2-3 13-13 3-2 3-3 3-2 2-2 5-3 2-2 5-3 5-3 5-3 12-6 13-5 9-3 12-3 16-3 17-2 15-1Z" fill="#878787"/><path d="M443 202h138l4 2 2 3 2 3 1 2 3 19 1 5 1 12 1 3 1 8 1 11 1 5 1 8 1 3 1 7 1 4 1 1v2h2l4 1 4 3 6 2 2 2 4 2 3 1 3 3 4 1 1 1v2h3l3 3 5 3 3 2 1 1h6v-2l7-2 7-3 7-3 3-2 6-1 5-2 1-1 11-4 1-1 10-3 1-2 6-1 6-3 1-1h8l4 1 3 2v2h2l1 2v2h2l1 3v3h2l4 8 2 1 2 5 3 6 2 3 2 3 1 1 1 3v2h3l3 4 1 2 1 5 3 6 1 1 1 3 2 3 2 3 1 3 3 3 4 8 1 1 1 3v2h2l2 4 1 3 2 2 2 3 2 5 4 2 1 2v14l-3 3-1 2-3 2-4 4-3 2-1 1h-3v2l-2 1h-2v2l-2 2-5 3-2 1-1 2-2 1-5 1-1 3-3 4-3 1-4 3-2 2-4 2-5 5-4 2h-3v3l-1 1h-2l1 10v53h2v2h4l1 2 3 2 4 3v2h2l3 2 2 3 5 2 1 1v2h2l3 4 4 2 2 3 3 2 5 2 2 1v2h2l3 2 2 3 2 1 2 3 6 2 2 4 2 2v13l-1 2h-2v3l-2 4-2 3-1 3-1 1h-2v2l-1 3-2 1-2 6-3 7h-2v2l-3 5-1 2h-2v2l-2 4-1 1-1 5-3 4-2 3-2 3-2 5-1 1-1 3-2 1h-2v2l-2 3-1 4-3 5-2 5-2 2-2 4-2 2-3 7-2 2h-2v3l-5 2h-8l-5-1-3-1-3-2-3-1-2-2-7-2-1-1-4-1-2-1-7-2-3-2-5-2-4-1-4-2-7-2-2-2-5-2-5-1-2-1v-2h-7l-3 3-3 2-3 1-1 2-5 2-2 3-5 2-5 3-2 1h-3v2l-5 2h-2v2l-1 1-6 1-1 1-3 1-1 7-1 10-1 7-1 1-1 11-2 12-2 16-1 2-1 15-1 5h-2v2l-2 3-3 2h-2v2H444l-4-3-2-2-1-3-2-3-1-5-1-11-2-11-1-10-2-14-1-4-1-7-1-3-1-11-1-2v-6h-3l-3-2-4-1-1-1v-2h-2l-9-3-2-2-4-2-2-2-3-1-3-3-5-2-4-4-3-1-1-1v-3l-6 1h-2v2l-10 3h-3v2l-2 1-8 2-6 3-6 2-1 1-6 2-2 1-5 1-3 2-6 2-2 2-7 2-4 2h-10l-3-1-3-2-3-2-1-1-1-3-1-1-2-5-2-2v-4h-2l-1-1-1-3-3-4-2-3-1-3-2-2-1-3-1-1-1-3-2-2-2-4-3-4-1-4-2-3-3-5v-2h-2l-2-5v-3h-2l-1-1-2-5-2-4-3-4-1-1-1-3-2-3v-3h-2l-1-1-2-5-2-4-2-3-2-1-1-5v-8l2-3 2-2 2-3 3-2 4-3 4-3 2-2h3v-3l6-3 6-6 3-2 3-1 2-3 3-2 2-2 5-3h2v-2l1-1h3v-2l2-2 3-2 2-2h3v-2l3-2v-7l-1-4v-50l-2-1v-2h-2l-2-2-3-1-2-2-2-3-3-2-2-1v-2h-2l-1-1-3-1-4-4-3-1-8-8-3-1-3-3-3-2-3-3-3-1-4-4-3-2-2-2-3-2-1-3-2-3v-13l3-5 3-4h2v-3l2-2 1-3 3-3 1-4 2-5 3-3 1-4 1-2h2v-2l1-1 1-3 3-4 2-4h2v-2l1-2 1-5 4-4 2-5 2-2 1-2 1-4 2-1 1-4 4-4 1-3 2-3 1-5 2-1 3-5 3-4 3-5 4-1h10l4 1 6 3 6 2 3 2 12 3 3 2 2 1 4 1 1 1 7 2 6 3v2h4l1 1 5 1 1 1 6 2 6 1h2l3-2 2-2 5-2 3-3 7-2 1-3 4-1 3-2 3-2 7-2 4-2 4-4 3-1h3v-7l2-23 2-16 1-3 1-1 1-9 2-10 2-7 3-13 1-3 2-2Z" fill="#e8e8e8"/><path d="M498 403h26l7 1 1 1 3 1 8 1 1 1 4 1 2 1 7 2 2 2 7 2 2 3 5 2 3 3 3 1 3 2 2 1 1 4 4 3 1 1v2h2l2 1 1 3 4 4 1 3 4 4v2h2l1 2 1 4 1 1 1 3 1 1v2h2l2 4 1 8 1 3 2 13 1 1v25l-3 17-3 10-2 4-1 4-2 2-1 2-1 4-1 2h-2v2l-2 2h-2v2l-1 3-3 2-2 3-3 3-2 3-2 1-2 3-3 2-2 2-3 2-3 4-1 1-3 1-1 1-4 1h-3v2l-5 2-1 1-5 1-3 2-4 1h-4v2l-17 3h-23l-16-3-4-2-4-1-2-1-4-1-4-2-5-2-4-3-1-1-4-1-5-5-3-2-3-3-3-2-9-9-1-3-3-2-1-3-3-3-1-3-2-1-2-4-1-4-2-2-2-7-2-2-2-8-1-7-1-2-1-5v-25l3-18 1-2h2v-5l2-7 2-3 1-3 2-3 1-2h2v-4l2-3h2v-2l1-3 4-4h3v-2l5-5 2-4 4-2 1-3h4v-2l2-2 5-2 1-1 3-1 3-2 4-2 1-1 4-1 4-2 1-1 10-2 3-1Z" fill="#878787"/><path d="M443 202h138l4 2 2 3 2 3 1 2 3 19 1 5 1 12 1 3 1 8 1 11 1 5 1 8 1 3 1 7v4h-2l-1-3-1-7-1-4-1-7-1-11-2-14-2-13-1-5-1-10-1-6-2-6-2-4-1-1-6-2H447l-6 2h-2v-1l2-2Z" fill="#b6b6b6"/><path d="M734 294h3l4 1 1 1v1h-12l-3 2-4 2h-6v2l-1 1-10 3-1 1-6 2-5 2-1 1-5 2-6 1-3 2-7 3-10 4h-4v2l-4 1h-2l-2-2v-1h4l5-2 4-2h6v-2l3-2 5-1 3-1 3-2 6-2h4v-2l5-2 6-1 3-2 7-3 6-3 3-1 5-1 1-1Z" fill="#b7b7b7"/><path d="M443 202h136l1 1v1H447l-6 2h-2v-1l2-2Z" fill="#c5c5c5"/><path d="M809 408l3 1 1 2v14l-3 3-1 2-3 2-4 4-3 2-1 1h-3v2l-2 1h-2v2l-2 2-5 3h-2l1-3 4-3 5-3 5-5h3v-2l2-2 2-1h2v-2l1-1h2v-2l1-3v-10l-1-2Z" fill="#b9b9b9"/><path d="M748 475h2v1l-6 6v3l1 13v26l-1 7h-1l-1-41v-10l2-1 1-3Z" fill="#afafaf"/><path d="M603 297h3l6 3 3 2 5 2 2 2 4 1 2 1v2h2l4 2 2 2v1h-4l-3-3-5-2-3-2-1-1-6-2-4-3-4-1-2-1Z" fill="#bcbcbc"/><path d="M429 248h1v10l-1 9-1 14-1 5-1 2h-1v-9l1-12 2-16Z" fill="#acacac"/><path d="M438 206h1v2l-3 13-3 11-1 6-1 9h-1v-10l1-8 2-9 1-8 2-4Z" fill="#b2b2b2"/><path d="M791 376h1l3 4 2 4 2 2 1 3 2 3 3 6v2h2l1 2 1 4v2h-1l-2-3-1-3-3-4-1-1-2-5v-2h-2l-2-5-2-3-2-4Z" fill="#b3b3b3"/><path d="M742 297h3l3 2 2 4 2 2 5 10 2 2v3h-2l-2-3-2-4v-2h-2l-1-3v-3h-2l-1-2v-2h-2v-2h-2l-1-1Z" fill="#b5b5b5"/><path d="M777 352l3 1 3 7 2 3 2 4 3 4 1 2v3h-1l-3-3-1-3-2-3-2-3-1-3-2-3-2-4Z" fill="#b8b8b8"/><path d="M734 294h3l4 1 1 1v1h-12l-3 2-4 2-6 1h-3v-1l6-3 3-1 5-1 1-1Z" fill="#b3b3b3"/><path d="M759 321h2l4 8 2 2 1 3 2 2 2 4v3h-2l-2-5-2-2-2-4-2-3-3-6Z" fill="#b6b6b6"/><path d="M579 202h2l4 2 2 3 2 3 1 2v11h-1l-1-6-2-6-2-4-1-1-3-1Z" fill="#b8b8b8"/><path d="M607 461h1l1 1 1 3 1 1v2h2l2 4v8h-1l-2-7v-2h-2l-1-4-1-1-1-3Z" fill="#b4b4b4"/><path d="M748 475h2v1l-6 6v11h-1l-1-3v-10l2-1 1-3Z" fill="#a6a6a6"/><path d="M427 268h1v13l-1 5-1 2h-1v-9Z" fill="#c8c8c8"/><path d="M416 298h2v1l-4 4-4 2-3 1h-4v-1l1-1 5-2 5-3Z" fill="#b2b2b2"/><path d="M637 316h3l3 2 2 2 3 1 2 2v2h-2l-5-3-3-3-3-1Z" fill="#b7b7b7"/><path d="M773 566h2l4 2 2 2v2h3l2 2v2h-2l-3-2-2-2v-2h-2l-3-2-1-1Z" fill="#b4b4b4"/><path d="M624 307h2l2 1v2h2l4 2 2 2v1h-4l-3-3-3-1-2-3Z" fill="#b2b2b2"/><path d="M599 283h1l1 3 1 7v4h-2l-1-3Z" fill="#aeaeae"/><path d="M801 626h2v2l-1 3-2 2-2 3-1 1h-1v-2l1-3 1-1h2v-3Z" fill="#b0b0b0"/><path d="M777 352l3 1 3 7 1 1v2h-1l-3-3-3-6Z" fill="#b2b2b2"/><path d="M279 297h4v1l-6 6-1 2h-2l1-3 3-4Z" fill="#d0d0d0"/><path d="M766 686h2v2l-2 5-2 2h-1v-4l2-3Z" fill="#b2b2b2"/><path d="M721 722h4l4 1v2h2v1h-4l-3-1-3-2Z" fill="#c5c5c5"/><path d="M772 343h1l3 4 1 2v3l-3-1-2-5Z" fill="#b9b9b9"/><path d="M382 319h1v2l-3 2-1 1-3 1h-2v-1l3-3Z" fill="#bdbdbd"/><path d="M347 317h5l2 1v2h2v1h-4l-1-1-4-1Z" fill="#b0b0b0"/><path d="M603 297h3l6 3v1h-6l-2-1Z" fill="#b1b1b1"/><path d="M770 457h2l-1 3-1 1-3 1-1 1h-2v-1l4-4Z" fill="#bdbdbd"/></svg>